<?xml version="1.0" standalone="no"?>
<!DOCTYPE svg PUBLIC "-//W3C//DTD SVG 20010904//EN"
 "http://www.w3.org/TR/2001/REC-SVG-20010904/DTD/svg10.dtd">
<svg version="1.0" xmlns="http://www.w3.org/2000/svg"
 width="16.000000pt" height="16.000000pt" viewBox="0 0 16.000000 16.000000"
 preserveAspectRatio="xMidYMid meet">
<metadata>
Created by potrace 1.11, written by Peter Selinger 2001-2013
</metadata>
<g transform="translate(0.000000,16.000000) scale(0.003125,-0.003125)"
fill="#000000" stroke="none">
<path d="M1465 3897 c3 -40 8 -99 11 -132 8 -96 11 -564 4 -633 l-6 -63 46 3
45 3 6 55 c17 152 21 187 25 205 2 11 7 40 10 65 20 149 73 279 140 346 89 89
203 120 455 123 l165 2 -2 -1288 c-1 -912 -5 -1304 -12 -1341 -31 -145 -100
-195 -287 -209 -44 -3 -81 -7 -83 -8 -1 -1 -4 -19 -5 -40 l-2 -37 568 -2 567
-1 0 43 0 42 -52 1 c-148 2 -256 46 -292 118 -40 79 -40 78 -41 1424 l-1 1298
156 -1 c340 -3 475 -68 552 -265 31 -79 85 -394 87 -512 1 -20 6 -23 44 -23
l43 0 -1 298 c0 261 7 469 20 568 l4 32 -172 -5 c-228 -6 -1605 -6 -1825 0
l-173 5 6 -71z"/>
</g>
</svg>
